<svg width="178" height="63" viewBox="0 0 178 63" fill="none" xmlns="http://www.w3.org/2000/svg">
<rect width="178" height="63" fill="#8257E5"/>
<path d="M31.8256 20.7612V28.8209H25.1854V40.8209C25.1854 42.2537 25.4226 43.3085 25.8969 43.9851C26.3712 44.6219 27.2407 44.9403 28.5055 44.9403H31.8256V51.9254C30.877 52.2438 29.6517 52.5025 28.1498 52.7015C26.6478 52.9005 25.3435 53 24.2368 53C20.7586 53 18.0709 52.3632 16.1738 51.0896C14.3161 49.8159 13.3873 47.6468 13.3873 44.5821V28.8209H9V20.7612H13.8616L16.4109 11.209H25.1854V20.7612H31.8256Z" fill="white"/>
<path d="M53.4853 20.0448C58.9793 20.0448 63.2875 21.4577 66.4099 24.2836C69.5719 27.0697 71.1529 31.1493 71.1529 36.5224C71.1529 41.8955 69.5719 45.995 66.4099 48.8209C63.2875 51.607 58.9793 53 53.4853 53C47.9914 53 43.6832 51.607 40.5607 48.8209C37.4383 46.0348 35.877 41.9353 35.877 36.5224C35.877 31.1095 37.4383 27.01 40.5607 24.2239C43.6832 21.4378 47.9914 20.0448 53.4853 20.0448ZM53.4853 28.1045C49.6119 28.1045 47.6752 30.3532 47.6752 34.8507V38.2537C47.6752 42.7114 49.6119 44.9403 53.4853 44.9403C57.3983 44.9403 59.3548 42.7114 59.3548 38.2537V34.8507C59.3548 30.3532 57.3983 28.1045 53.4853 28.1045Z" fill="white"/>
<path d="M75.9191 52.2836V40.403H88.488V52.2836H75.9191Z" fill="white"/>
<path d="M118.369 52.2836L117.361 47.806C115.069 51.2687 111.749 53 107.401 53C103.172 53 99.9111 51.607 97.6186 48.8209C95.3262 46.0348 94.18 41.9154 94.18 36.4627C94.18 31.0497 95.3262 26.9701 97.6186 24.2239C99.9111 21.4378 103.172 20.0448 107.401 20.0448C110.998 20.0448 113.923 21.2587 116.176 23.6866V9H127.974V52.2836H118.369ZM111.077 28.8209C107.678 28.8209 105.978 30.8706 105.978 34.9701V38.1343C105.978 42.194 107.678 44.2239 111.077 44.2239C112.816 44.2239 114.12 43.607 114.99 42.3731C115.859 41.1393 116.294 39.5274 116.294 37.5373V35.5672C116.294 33.5771 115.859 31.9652 114.99 30.7313C114.12 29.4577 112.816 28.8209 111.077 28.8209Z" fill="white"/>
<path d="M151.332 20.0448C156.826 20.0448 161.135 21.4577 164.257 24.2836C167.419 27.0697 169 31.1493 169 36.5224C169 41.8955 167.419 45.995 164.257 48.8209C161.135 51.607 156.826 53 151.332 53C145.838 53 141.53 51.607 138.408 48.8209C135.285 46.0348 133.724 41.9353 133.724 36.5224C133.724 31.1095 135.285 27.01 138.408 24.2239C141.53 21.4378 145.838 20.0448 151.332 20.0448ZM151.332 28.1045C147.459 28.1045 145.522 30.3532 145.522 34.8507V38.2537C145.522 42.7114 147.459 44.9403 151.332 44.9403C155.245 44.9403 157.202 42.7114 157.202 38.2537V34.8507C157.202 30.3532 155.245 28.1045 151.332 28.1045Z" fill="white"/>
</svg>
